<?xml version="1.0" encoding="UTF-8" standalone="no"?>
<!-- Created with Inkscape (http://www.inkscape.org/) -->

<svg
   xmlns:dc="http://purl.org/dc/elements/1.1/"
   xmlns:cc="http://creativecommons.org/ns#"
   xmlns:rdf="http://www.w3.org/1999/02/22-rdf-syntax-ns#"
   xmlns:svg="http://www.w3.org/2000/svg"
   xmlns="http://www.w3.org/2000/svg"
   xmlns:sodipodi="http://sodipodi.sourceforge.net/DTD/sodipodi-0.dtd"
   xmlns:inkscape="http://www.inkscape.org/namespaces/inkscape"
   width="524.40942"
   height="372.04724"
   id="svg2"
   version="1.1"
   inkscape:version="0.48.5 r10040"
   sodipodi:docname="skip-gram.svg">
  <defs
     id="defs4" />
  <sodipodi:namedview
     id="base"
     pagecolor="#ffffff"
     bordercolor="#666666"
     borderopacity="1.0"
     inkscape:pageopacity="0.0"
     inkscape:pageshadow="2"
     inkscape:zoom="2.8284272"
     inkscape:cx="374.3416"
     inkscape:cy="157.59547"
     inkscape:document-units="px"
     inkscape:current-layer="layer1"
     showgrid="false"
     inkscape:window-width="1428"
     inkscape:window-height="797"
     inkscape:window-x="0"
     inkscape:window-y="0"
     inkscape:window-maximized="0"
     units="mm"
     showguides="true"
     inkscape:guide-bbox="true" />
  <metadata
     id="metadata7">
    <rdf:RDF>
      <cc:Work
         rdf:about="">
        <dc:format>image/svg+xml</dc:format>
        <dc:type
           rdf:resource="http://purl.org/dc/dcmitype/StillImage" />
        <dc:title />
      </cc:Work>
    </rdf:RDF>
  </metadata>
  <g
     inkscape:label="Layer 1"
     inkscape:groupmode="layer"
     id="layer1"
     transform="translate(0,-680.31488)">
    <g
       transform="translate(336.80046,26.574773)"
       id="g3833"
       style="fill:#e6e6e6">
      <rect
         style="fill:#e6e6e6;fill-opacity:1;stroke:#efe8b3;stroke-width:0;stroke-miterlimit:4;stroke-opacity:1;stroke-dasharray:none"
         id="rect3835"
         width="35.433071"
         height="141.73228"
         x="17.716536"
         y="768.89758" />
      <path
         sodipodi:type="arc"
         style="fill:#e6e6e6;stroke:#000000;stroke-width:2.82222222999999994;stroke-miterlimit:4;stroke-opacity:1;stroke-dasharray:none"
         id="path3837"
         sodipodi:cx="46"
         sodipodi:cy="52.047241"
         sodipodi:rx="25"
         sodipodi:ry="25"
         d="m 71,52.047241 c 0,13.807119 -11.192881,25 -25,25 -13.807119,0 -25,-11.192881 -25,-25 0,-13.807119 11.192881,-25 25,-25 13.807119,0 25,11.192881 25,25 z"
         transform="matrix(0.33539928,0,0,0.33539928,20.004704,808.54724)" />
      <path
         transform="matrix(0.33539928,0,0,0.33539928,20.004704,830.54724)"
         d="m 71,52.047241 c 0,13.807119 -11.192881,25 -25,25 -13.807119,0 -25,-11.192881 -25,-25 0,-13.807119 11.192881,-25 25,-25 13.807119,0 25,11.192881 25,25 z"
         sodipodi:ry="25"
         sodipodi:rx="25"
         sodipodi:cy="52.047241"
         sodipodi:cx="46"
         id="path3839"
         style="fill:#e6e6e6;stroke:#000000;stroke-width:2.82222222999999994;stroke-miterlimit:4;stroke-opacity:1;stroke-dasharray:none"
         sodipodi:type="arc" />
      <path
         sodipodi:type="arc"
         style="fill:#e6e6e6;stroke:#000000;stroke-width:2.82222222999999994;stroke-miterlimit:4;stroke-opacity:1;stroke-dasharray:none"
         id="path3841"
         sodipodi:cx="46"
         sodipodi:cy="52.047241"
         sodipodi:rx="25"
         sodipodi:ry="25"
         d="m 71,52.047241 c 0,13.807119 -11.192881,25 -25,25 -13.807119,0 -25,-11.192881 -25,-25 0,-13.807119 11.192881,-25 25,-25 13.807119,0 25,11.192881 25,25 z"
         transform="matrix(0.33539928,0,0,0.33539928,20.004704,879.1311)" />
      <path
         transform="matrix(0.33539928,0,0,0.33539928,20.004704,764.54724)"
         d="m 71,52.047241 c 0,13.807119 -11.192881,25 -25,25 -13.807119,0 -25,-11.192881 -25,-25 0,-13.807119 11.192881,-25 25,-25 13.807119,0 25,11.192881 25,25 z"
         sodipodi:ry="25"
         sodipodi:rx="25"
         sodipodi:cy="52.047241"
         sodipodi:cx="46"
         id="path3845"
         style="fill:#e6e6e6;stroke:#000000;stroke-width:2.82222222999999994;stroke-miterlimit:4;stroke-opacity:1;stroke-dasharray:none"
         sodipodi:type="arc" />
      <path
         sodipodi:type="arc"
         style="fill:#e6e6e6;stroke:#000000;stroke-width:2.82222222999999994;stroke-miterlimit:4;stroke-opacity:1;stroke-dasharray:none"
         id="path3847"
         sodipodi:cx="46"
         sodipodi:cy="52.047241"
         sodipodi:rx="25"
         sodipodi:ry="25"
         d="m 71,52.047241 c 0,13.807119 -11.192881,25 -25,25 -13.807119,0 -25,-11.192881 -25,-25 0,-13.807119 11.192881,-25 25,-25 13.807119,0 25,11.192881 25,25 z"
         transform="matrix(0.33539928,0,0,0.33539928,20.004704,786.54724)" />
    </g>
    <g
       id="g3849"
       transform="translate(460,26.574773)"
       style="fill:#b7c4c8">
      <rect
         y="768.89758"
         x="17.716536"
         height="141.73228"
         width="35.433071"
         id="rect3851"
         style="fill:#b7c4c8;fill-opacity:1;stroke:#efe8b3;stroke-width:0;stroke-miterlimit:4;stroke-opacity:1;stroke-dasharray:none" />
      <path
         transform="matrix(0.33539928,0,0,0.33539928,20.004704,808.54724)"
         d="m 71,52.047241 c 0,13.807119 -11.192881,25 -25,25 -13.807119,0 -25,-11.192881 -25,-25 0,-13.807119 11.192881,-25 25,-25 13.807119,0 25,11.192881 25,25 z"
         sodipodi:ry="25"
         sodipodi:rx="25"
         sodipodi:cy="52.047241"
         sodipodi:cx="46"
         id="path3853"
         style="fill:#b7c4c8;stroke:#000000;stroke-width:2.82222222999999994;stroke-miterlimit:4;stroke-opacity:1;stroke-dasharray:none"
         sodipodi:type="arc" />
      <path
         sodipodi:type="arc"
         style="fill:#b7c4c8;stroke:#000000;stroke-width:2.82222222999999994;stroke-miterlimit:4;stroke-opacity:1;stroke-dasharray:none"
         id="path3855"
         sodipodi:cx="46"
         sodipodi:cy="52.047241"
         sodipodi:rx="25"
         sodipodi:ry="25"
         d="m 71,52.047241 c 0,13.807119 -11.192881,25 -25,25 -13.807119,0 -25,-11.192881 -25,-25 0,-13.807119 11.192881,-25 25,-25 13.807119,0 25,11.192881 25,25 z"
         transform="matrix(0.33539928,0,0,0.33539928,20.004704,830.54724)" />
      <path
         transform="matrix(0.33539928,0,0,0.33539928,20.004704,879.1311)"
         d="m 71,52.047241 c 0,13.807119 -11.192881,25 -25,25 -13.807119,0 -25,-11.192881 -25,-25 0,-13.807119 11.192881,-25 25,-25 13.807119,0 25,11.192881 25,25 z"
         sodipodi:ry="25"
         sodipodi:rx="25"
         sodipodi:cy="52.047241"
         sodipodi:cx="46"
         id="path3857"
         style="fill:#b7c4c8;stroke:#000000;stroke-width:2.82222222999999994;stroke-miterlimit:4;stroke-opacity:1;stroke-dasharray:none"
         sodipodi:type="arc" />
      <path
         sodipodi:type="arc"
         style="fill:#b7c4c8;stroke:#000000;stroke-width:2.82222222999999994;stroke-miterlimit:4;stroke-opacity:1;stroke-dasharray:none"
         id="path3861"
         sodipodi:cx="46"
         sodipodi:cy="52.047241"
         sodipodi:rx="25"
         sodipodi:ry="25"
         d="m 71,52.047241 c 0,13.807119 -11.192881,25 -25,25 -13.807119,0 -25,-11.192881 -25,-25 0,-13.807119 11.192881,-25 25,-25 13.807119,0 25,11.192881 25,25 z"
         transform="matrix(0.33539928,0,0,0.33539928,20.004704,764.54724)" />
      <path
         transform="matrix(0.33539928,0,0,0.33539928,20.004704,786.54724)"
         d="m 71,52.047241 c 0,13.807119 -11.192881,25 -25,25 -13.807119,0 -25,-11.192881 -25,-25 0,-13.807119 11.192881,-25 25,-25 13.807119,0 25,11.192881 25,25 z"
         sodipodi:ry="25"
         sodipodi:rx="25"
         sodipodi:cy="52.047241"
         sodipodi:cx="46"
         id="path3863"
         style="fill:#b7c4c8;stroke:#000000;stroke-width:2.82222222999999994;stroke-miterlimit:4;stroke-opacity:1;stroke-dasharray:none"
         sodipodi:type="arc" />
    </g>
    <g
       id="g3824"
       transform="translate(0,26.574773)"
       style="fill:#e9afaf">
      <g
         id="g4123">
        <rect
           style="fill:#e9afaf;fill-opacity:1;stroke:#efe8b3;stroke-width:0;stroke-miterlimit:4;stroke-opacity:1;stroke-dasharray:none"
           id="rect3004"
           width="35.433071"
           height="141.73228"
           x="17.716536"
           y="768.89758" />
        <path
           sodipodi:type="arc"
           style="fill:#e9afaf;stroke:#000000;stroke-width:2.82222222999999994;stroke-miterlimit:4;stroke-opacity:1;stroke-dasharray:none"
           id="path3776"
           sodipodi:cx="46"
           sodipodi:cy="52.047241"
           sodipodi:rx="25"
           sodipodi:ry="25"
           d="m 71,52.047241 c 0,13.807119 -11.192881,25 -25,25 -13.807119,0 -25,-11.192881 -25,-25 0,-13.807119 11.192881,-25 25,-25 13.807119,0 25,11.192881 25,25 z"
           transform="matrix(0.33539928,0,0,0.33539928,20.004704,808.54724)" />
        <path
           transform="matrix(0.33539928,0,0,0.33539928,20.004704,830.54724)"
           d="m 71,52.047241 c 0,13.807119 -11.192881,25 -25,25 -13.807119,0 -25,-11.192881 -25,-25 0,-13.807119 11.192881,-25 25,-25 13.807119,0 25,11.192881 25,25 z"
           sodipodi:ry="25"
           sodipodi:rx="25"
           sodipodi:cy="52.047241"
           sodipodi:cx="46"
           id="path3786"
           style="fill:#e9afaf;stroke:#000000;stroke-width:2.82222222999999994;stroke-miterlimit:4;stroke-opacity:1;stroke-dasharray:none"
           sodipodi:type="arc" />
        <path
           sodipodi:type="arc"
           style="fill:#e9afaf;stroke:#000000;stroke-width:2.82222222999999994;stroke-miterlimit:4;stroke-opacity:1;stroke-dasharray:none"
           id="path3788"
           sodipodi:cx="46"
           sodipodi:cy="52.047241"
           sodipodi:rx="25"
           sodipodi:ry="25"
           d="m 71,52.047241 c 0,13.807119 -11.192881,25 -25,25 -13.807119,0 -25,-11.192881 -25,-25 0,-13.807119 11.192881,-25 25,-25 13.807119,0 25,11.192881 25,25 z"
           transform="matrix(0.33539928,0,0,0.33539928,20.004704,879.1311)" />
        <path
           style="fill:#e9afaf;stroke:#000000;stroke-width:1;stroke-linecap:butt;stroke-linejoin:miter;stroke-miterlimit:4;stroke-opacity:1;stroke-dasharray:3, 3;stroke-dashoffset:0"
           d="m 40.599834,858.86259 0,28.3137"
           id="path3792"
           inkscape:connector-curvature="0"
           sodipodi:nodetypes="cc" />
        <path
           transform="matrix(0.33539928,0,0,0.33539928,20.004704,764.54724)"
           d="m 71,52.047241 c 0,13.807119 -11.192881,25 -25,25 -13.807119,0 -25,-11.192881 -25,-25 0,-13.807119 11.192881,-25 25,-25 13.807119,0 25,11.192881 25,25 z"
           sodipodi:ry="25"
           sodipodi:rx="25"
           sodipodi:cy="52.047241"
           sodipodi:cx="46"
           id="path3820"
           style="fill:#e9afaf;stroke:#000000;stroke-width:2.82222222999999994;stroke-miterlimit:4;stroke-opacity:1;stroke-dasharray:none"
           sodipodi:type="arc" />
        <path
           sodipodi:type="arc"
           style="fill:#e9afaf;stroke:#000000;stroke-width:2.82222222999999994;stroke-miterlimit:4;stroke-opacity:1;stroke-dasharray:none"
           id="path3822"
           sodipodi:cx="46"
           sodipodi:cy="52.047241"
           sodipodi:rx="25"
           sodipodi:ry="25"
           d="m 71,52.047241 c 0,13.807119 -11.192881,25 -25,25 -13.807119,0 -25,-11.192881 -25,-25 0,-13.807119 11.192881,-25 25,-25 13.807119,0 25,11.192881 25,25 z"
           transform="matrix(0.33539928,0,0,0.33539928,20.004704,786.54724)" />
        <text
           xml:space="preserve"
           style="font-size:20px;font-style:normal;font-variant:normal;font-weight:normal;font-stretch:normal;line-height:125%;letter-spacing:0px;word-spacing:0px;fill:#000000;fill-opacity:1;stroke:none;font-family:Latin Modern Sans;-inkscape-font-specification:Latin Modern Sans"
           x="28.677"
           y="877.29492"
           id="text4132"
           sodipodi:linespacing="125%"><tspan
             sodipodi:role="line"
             id="tspan4134"
             x="28.677"
             y="877.29492"
             style="font-size:15px">V</tspan></text>
        <g
           id="g3544"
           transform="translate(-20,0)">
          <path
             style="fill:#e9afaf;stroke:#000000;stroke-width:1;stroke-linecap:butt;stroke-linejoin:miter;stroke-miterlimit:4;stroke-opacity:1;stroke-dasharray:3, 3;stroke-dashoffset:0"
             d="m 398.59983,858.86259 0,28.3137"
             id="path3538"
             inkscape:connector-curvature="0"
             sodipodi:nodetypes="cc" />
          <text
             xml:space="preserve"
             style="font-size:20px;font-style:normal;font-variant:normal;font-weight:normal;font-stretch:normal;line-height:125%;letter-spacing:0px;word-spacing:0px;fill:#000000;fill-opacity:1;stroke:none;font-family:Latin Modern Sans;-inkscape-font-specification:Latin Modern Sans"
             x="386.677"
             y="877.29492"
             id="text3540"
             sodipodi:linespacing="125%"><tspan
               sodipodi:role="line"
               id="tspan3542"
               x="386.677"
               y="877.29492"
               style="font-size:15px">V</tspan></text>
          <path
             sodipodi:nodetypes="cc"
             inkscape:connector-curvature="0"
             id="path3549"
             d="m 520.59983,858.86259 0,28.3137"
             style="fill:#e9afaf;stroke:#000000;stroke-width:1;stroke-linecap:butt;stroke-linejoin:miter;stroke-miterlimit:4;stroke-opacity:1;stroke-dasharray:3, 3;stroke-dashoffset:0" />
          <text
             sodipodi:linespacing="125%"
             id="text3551"
             y="877.29492"
             x="508.677"
             style="font-size:20px;font-style:normal;font-variant:normal;font-weight:normal;font-stretch:normal;line-height:125%;letter-spacing:0px;word-spacing:0px;fill:#000000;fill-opacity:1;stroke:none;font-family:Latin Modern Sans;-inkscape-font-specification:Latin Modern Sans"
             xml:space="preserve"><tspan
               style="font-size:15px"
               y="877.29492"
               x="508.677"
               id="tspan3553"
               sodipodi:role="line">V</tspan></text>
        </g>
      </g>
      <path
         style="fill:#e9afaf;stroke:#000000;stroke-width:2;stroke-linecap:butt;stroke-linejoin:miter;stroke-miterlimit:4;stroke-opacity:1;stroke-dasharray:8, 8;stroke-dashoffset:0"
         d="m 212.20711,893.08441 0,62.96193"
         id="path4121"
         inkscape:connector-curvature="0"
         sodipodi:nodetypes="cc" />
      <text
         xml:space="preserve"
         style="font-size:20px;font-style:normal;font-variant:normal;font-weight:normal;font-stretch:normal;line-height:125%;letter-spacing:0px;word-spacing:0px;fill:#000000;fill-opacity:1;stroke:none;font-family:Latin Modern Sans;-inkscape-font-specification:Latin Modern Sans"
         x="196.57568"
         y="927.49951"
         id="text4136"
         sodipodi:linespacing="125%"><tspan
           sodipodi:role="line"
           id="tspan4138"
           x="196.57568"
           y="927.49951">d</tspan></text>
    </g>
    <path
       style="fill:none;stroke:#000000;stroke-width:1px;stroke-linecap:butt;stroke-linejoin:miter;stroke-opacity:0.11764706"
       d="m 380.5,923.86212 106.5,0"
       id="path4103"
       inkscape:connector-curvature="0"
       sodipodi:nodetypes="cc" />
    <g
       id="g3983">
      <path
         sodipodi:nodetypes="cc"
         transform="translate(0,680.31488)"
         inkscape:connector-curvature="0"
         id="path3867"
         d="M 44,128.54724 179.5,45.047241"
         style="fill:none;stroke:#000000;stroke-width:1px;stroke-linecap:butt;stroke-linejoin:miter;stroke-opacity:1" />
      <path
         transform="translate(0,680.31488)"
         inkscape:connector-curvature="0"
         id="path3869"
         d="m 43.5,128.04724 136,-0.5"
         style="fill:none;stroke:#000000;stroke-width:1px;stroke-linecap:butt;stroke-linejoin:miter;stroke-opacity:1" />
      <path
         transform="translate(0,680.31488)"
         inkscape:connector-curvature="0"
         id="path3871"
         d="m 43.5,128.04724 136,79.5"
         style="fill:none;stroke:#000000;stroke-width:1px;stroke-linecap:butt;stroke-linejoin:miter;stroke-opacity:1" />
      <path
         transform="translate(0,680.31488)"
         inkscape:connector-curvature="0"
         id="path3873"
         d="m 44,128.54724 136,200"
         style="fill:none;stroke:#000000;stroke-width:1px;stroke-linecap:butt;stroke-linejoin:miter;stroke-opacity:1" />
      <path
         style="fill:none;stroke:#000000;stroke-width:1px;stroke-linecap:butt;stroke-linejoin:miter;stroke-opacity:0.11764706"
         d="M 44,830.86212 179.5,725.44181"
         id="path3883"
         inkscape:connector-curvature="0"
         sodipodi:nodetypes="cc" />
      <path
         sodipodi:nodetypes="cc"
         style="fill:none;stroke:#000000;stroke-width:1px;stroke-linecap:butt;stroke-linejoin:miter;stroke-opacity:0.11764706"
         d="M 43.5,830.36212 179.32322,807.76503"
         id="path3885"
         inkscape:connector-curvature="0" />
      <path
         sodipodi:nodetypes="cc"
         style="fill:none;stroke:#000000;stroke-width:1px;stroke-linecap:butt;stroke-linejoin:miter;stroke-opacity:0.11764706"
         d="m 43.5,830.36212 136,56.87258"
         id="path3887"
         inkscape:connector-curvature="0" />
      <path
         sodipodi:nodetypes="cc"
         style="fill:none;stroke:#000000;stroke-width:1px;stroke-linecap:butt;stroke-linejoin:miter;stroke-opacity:0.11764706"
         d="M 44,830.86212 179.29289,1008.2347"
         id="path3889"
         inkscape:connector-curvature="0" />
      <path
         sodipodi:nodetypes="cc"
         inkscape:connector-curvature="0"
         id="path3899"
         d="M 44,830.86212 179.5,725.44181"
         style="fill:none;stroke:#000000;stroke-width:1;stroke-linecap:butt;stroke-linejoin:miter;stroke-opacity:0;stroke-miterlimit:4;stroke-dasharray:none;stroke-dashoffset:0;fill-opacity:1" />
      <path
         sodipodi:nodetypes="cc"
         inkscape:connector-curvature="0"
         id="path3926"
         d="M 44,852.86212 179.5,725.5215"
         style="fill:none;stroke:#000000;stroke-width:1px;stroke-linecap:butt;stroke-linejoin:miter;stroke-opacity:0.11764706" />
      <path
         inkscape:connector-curvature="0"
         id="path3928"
         d="m 43.5,852.36212 136,-44.34062"
         style="fill:none;stroke:#000000;stroke-width:1px;stroke-linecap:butt;stroke-linejoin:miter;stroke-opacity:0.11764706"
         sodipodi:nodetypes="cc" />
      <path
         inkscape:connector-curvature="0"
         id="path3930"
         d="m 43.5,852.36212 136.53033,35.65937"
         style="fill:none;stroke:#000000;stroke-width:1px;stroke-linecap:butt;stroke-linejoin:miter;stroke-opacity:0.11764706"
         sodipodi:nodetypes="cc" />
      <path
         inkscape:connector-curvature="0"
         id="path3932"
         d="M 44,852.86212 179.82322,1007.6073"
         style="fill:none;stroke:#000000;stroke-width:1px;stroke-linecap:butt;stroke-linejoin:miter;stroke-opacity:0.11764706"
         sodipodi:nodetypes="cc" />
      <path
         style="fill:none;stroke:#000000;stroke-width:1;stroke-linecap:butt;stroke-linejoin:miter;stroke-miterlimit:4;stroke-opacity:0;stroke-dasharray:none;stroke-dashoffset:0"
         d="M 44,852.86212 179.5,747.44181"
         id="path3934"
         inkscape:connector-curvature="0"
         sodipodi:nodetypes="cc" />
      <path
         sodipodi:nodetypes="cc"
         inkscape:connector-curvature="0"
         id="path3963"
         d="M 44,922.86212 179.5,726.22504"
         style="fill:none;stroke:#000000;stroke-width:1px;stroke-linecap:butt;stroke-linejoin:miter;stroke-opacity:0.11764706" />
      <path
         inkscape:connector-curvature="0"
         id="path3965"
         d="m 43.5,922.36212 136,-114.34419"
         style="fill:none;stroke:#000000;stroke-width:1px;stroke-linecap:butt;stroke-linejoin:miter;stroke-opacity:0.11764706"
         sodipodi:nodetypes="cc" />
      <path
         inkscape:connector-curvature="0"
         id="path3967"
         d="M 43.5,922.36212 180.56066,887.84115"
         style="fill:none;stroke:#000000;stroke-width:1px;stroke-linecap:butt;stroke-linejoin:miter;stroke-opacity:0.11764706"
         sodipodi:nodetypes="cc" />
      <path
         inkscape:connector-curvature="0"
         id="path3969"
         d="m 44,922.86212 136,84.74158"
         style="fill:none;stroke:#000000;stroke-width:1px;stroke-linecap:butt;stroke-linejoin:miter;stroke-opacity:0.11764706"
         sodipodi:nodetypes="cc" />
      <path
         style="fill:none;stroke:#000000;stroke-width:1;stroke-linecap:butt;stroke-linejoin:miter;stroke-miterlimit:4;stroke-opacity:0;stroke-dasharray:none;stroke-dashoffset:0"
         d="M 44,922.86212 179.5,817.44181"
         id="path3971"
         inkscape:connector-curvature="0"
         sodipodi:nodetypes="cc" />
      <path
         sodipodi:nodetypes="cc"
         inkscape:connector-curvature="0"
         id="path3981"
         d="M 44,944.86212 179.5,839.44181"
         style="fill:none;stroke:#000000;stroke-width:1;stroke-linecap:butt;stroke-linejoin:miter;stroke-miterlimit:4;stroke-opacity:0;stroke-dasharray:none;stroke-dashoffset:0" />
    </g>
    <g
       id="g4005"
       transform="matrix(-1,0,0,1,407.56066,0)">
      <path
         style="fill:none;stroke:#000000;stroke-width:1px;stroke-linecap:butt;stroke-linejoin:miter;stroke-opacity:0.11764706"
         d="M 44,128.54724 179.5,45.047241"
         id="path4007"
         inkscape:connector-curvature="0"
         transform="translate(0,680.31488)"
         sodipodi:nodetypes="cc" />
      <path
         style="fill:none;stroke:#000000;stroke-width:1px;stroke-linecap:butt;stroke-linejoin:miter;stroke-opacity:0.11764706"
         d="m 43.5,128.04724 136,-0.5"
         id="path4009"
         inkscape:connector-curvature="0"
         transform="translate(0,680.31488)" />
      <path
         style="fill:none;stroke:#000000;stroke-width:1px;stroke-linecap:butt;stroke-linejoin:miter;stroke-opacity:0.11764706"
         d="m 43.5,128.04724 136,79.5"
         id="path4011"
         inkscape:connector-curvature="0"
         transform="translate(0,680.31488)" />
      <path
         style="fill:none;stroke:#000000;stroke-width:1px;stroke-linecap:butt;stroke-linejoin:miter;stroke-opacity:0.11764706"
         d="m 44,128.54724 136,200"
         id="path4013"
         inkscape:connector-curvature="0"
         transform="translate(0,680.31488)" />
      <path
         sodipodi:nodetypes="cc"
         inkscape:connector-curvature="0"
         id="path4015"
         d="M 44,830.86212 179.5,725.44181"
         style="fill:none;stroke:#000000;stroke-width:1px;stroke-linecap:butt;stroke-linejoin:miter;stroke-opacity:1" />
      <path
         inkscape:connector-curvature="0"
         id="path4017"
         d="M 43.5,830.36212 179.32322,807.76503"
         style="fill:none;stroke:#000000;stroke-width:1px;stroke-linecap:butt;stroke-linejoin:miter;stroke-opacity:1"
         sodipodi:nodetypes="cc" />
      <path
         inkscape:connector-curvature="0"
         id="path4019"
         d="m 43.5,830.36212 136,56.87258"
         style="fill:none;stroke:#000000;stroke-width:1px;stroke-linecap:butt;stroke-linejoin:miter;stroke-opacity:1"
         sodipodi:nodetypes="cc" />
      <path
         inkscape:connector-curvature="0"
         id="path4021"
         d="M 44,830.86212 179.29289,1008.2347"
         style="fill:none;stroke:#000000;stroke-width:1px;stroke-linecap:butt;stroke-linejoin:miter;stroke-opacity:1"
         sodipodi:nodetypes="cc" />
      <path
         style="fill:none;stroke:#000000;stroke-width:1;stroke-linecap:butt;stroke-linejoin:miter;stroke-miterlimit:4;stroke-opacity:0;stroke-dasharray:none;stroke-dashoffset:0"
         d="M 44,830.86212 179.5,725.44181"
         id="path4023"
         inkscape:connector-curvature="0"
         sodipodi:nodetypes="cc" />
      <path
         style="fill:none;stroke:#000000;stroke-width:1px;stroke-linecap:butt;stroke-linejoin:miter;stroke-opacity:0.11764706"
         d="M 44,852.86212 179.5,725.5215"
         id="path4025"
         inkscape:connector-curvature="0"
         sodipodi:nodetypes="cc" />
      <path
         sodipodi:nodetypes="cc"
         style="fill:none;stroke:#000000;stroke-width:1px;stroke-linecap:butt;stroke-linejoin:miter;stroke-opacity:0.11764706"
         d="m 43.5,852.36212 136,-44.34062"
         id="path4027"
         inkscape:connector-curvature="0" />
      <path
         sodipodi:nodetypes="cc"
         style="fill:none;stroke:#000000;stroke-width:1px;stroke-linecap:butt;stroke-linejoin:miter;stroke-opacity:0.11764706"
         d="m 43.5,852.36212 136.53033,35.65937"
         id="path4029"
         inkscape:connector-curvature="0" />
      <path
         sodipodi:nodetypes="cc"
         style="fill:none;stroke:#000000;stroke-width:1px;stroke-linecap:butt;stroke-linejoin:miter;stroke-opacity:0.11764706"
         d="M 44,852.86212 179.82322,1007.6073"
         id="path4031"
         inkscape:connector-curvature="0" />
      <path
         sodipodi:nodetypes="cc"
         inkscape:connector-curvature="0"
         id="path4033"
         d="M 44,852.86212 179.5,747.44181"
         style="fill:none;stroke:#000000;stroke-width:1;stroke-linecap:butt;stroke-linejoin:miter;stroke-miterlimit:4;stroke-opacity:0;stroke-dasharray:none;stroke-dashoffset:0" />
      <path
         style="fill:none;stroke:#000000;stroke-width:1px;stroke-linecap:butt;stroke-linejoin:miter;stroke-opacity:0.11764706"
         d="M 44,922.86212 179.5,726.22504"
         id="path4035"
         inkscape:connector-curvature="0"
         sodipodi:nodetypes="cc" />
      <path
         sodipodi:nodetypes="cc"
         style="fill:none;stroke:#000000;stroke-width:1px;stroke-linecap:butt;stroke-linejoin:miter;stroke-opacity:0.11764706"
         d="m 43.5,922.36212 136,-114.34419"
         id="path4037"
         inkscape:connector-curvature="0" />
      <path
         sodipodi:nodetypes="cc"
         style="fill:none;stroke:#000000;stroke-width:1px;stroke-linecap:butt;stroke-linejoin:miter;stroke-opacity:0.11764706"
         d="M 43.5,922.36212 180.56066,887.84115"
         id="path4039"
         inkscape:connector-curvature="0" />
      <path
         sodipodi:nodetypes="cc"
         style="fill:none;stroke:#000000;stroke-width:1px;stroke-linecap:butt;stroke-linejoin:miter;stroke-opacity:0.11764706"
         d="m 44,922.86212 136,84.74158"
         id="path4041"
         inkscape:connector-curvature="0" />
      <path
         sodipodi:nodetypes="cc"
         inkscape:connector-curvature="0"
         id="path4043"
         d="M 44,922.86212 179.5,817.44181"
         style="fill:none;stroke:#000000;stroke-width:1;stroke-linecap:butt;stroke-linejoin:miter;stroke-miterlimit:4;stroke-opacity:0;stroke-dasharray:none;stroke-dashoffset:0" />
      <path
         style="fill:none;stroke:#000000;stroke-width:1;stroke-linecap:butt;stroke-linejoin:miter;stroke-miterlimit:4;stroke-opacity:0;stroke-dasharray:none;stroke-dashoffset:0"
         d="M 44,944.86212 179.5,839.44181"
         id="path4045"
         inkscape:connector-curvature="0"
         sodipodi:nodetypes="cc" />
    </g>
    <g
       id="g4049">
      <path
         transform="matrix(0.94196003,0,0,-0.98040739,34.908465,806.34094)"
         d="m 205,80.547241 c 0,13.530977 -11.41674,24.499999 -25.5,24.499999 -14.08326,0 -25.5,-10.969022 -25.5,-24.499999 0,-13.530976 11.41674,-24.5 25.5,-24.5 14.08326,0 25.5,10.969024 25.5,24.5 z"
         sodipodi:ry="24.5"
         sodipodi:rx="25.5"
         sodipodi:cy="80.547241"
         sodipodi:cx="179.5"
         id="path3801"
         style="fill:none;stroke:#000000;stroke-width:2.0395999;stroke-miterlimit:4;stroke-opacity:1;stroke-dasharray:none;stroke-dashoffset:0"
         sodipodi:type="arc" />
      <path
         sodipodi:nodetypes="cc"
         inkscape:connector-curvature="0"
         id="path4047"
         d="m 191.5,739.86212 25,-24"
         style="fill:none;stroke:#000000;stroke-width:1px;stroke-linecap:butt;stroke-linejoin:miter;stroke-opacity:1" />
    </g>
    <g
       id="g4053"
       transform="translate(0,80)">
      <path
         sodipodi:type="arc"
         style="fill:none;stroke:#000000;stroke-width:2.0395999;stroke-miterlimit:4;stroke-opacity:1;stroke-dasharray:none;stroke-dashoffset:0"
         id="path4055"
         sodipodi:cx="179.5"
         sodipodi:cy="80.547241"
         sodipodi:rx="25.5"
         sodipodi:ry="24.5"
         d="m 205,80.547241 c 0,13.530977 -11.41674,24.499999 -25.5,24.499999 -14.08326,0 -25.5,-10.969022 -25.5,-24.499999 0,-13.530976 11.41674,-24.5 25.5,-24.5 14.08326,0 25.5,10.969024 25.5,24.5 z"
         transform="matrix(0.94196003,0,0,-0.98040739,34.908465,806.34094)" />
      <path
         style="fill:none;stroke:#000000;stroke-width:1px;stroke-linecap:butt;stroke-linejoin:miter;stroke-opacity:1"
         d="m 191.5,739.86212 25,-24"
         id="path4057"
         inkscape:connector-curvature="0"
         sodipodi:nodetypes="cc" />
    </g>
    <g
       transform="translate(0,160)"
       id="g4059">
      <path
         transform="matrix(0.94196003,0,0,-0.98040739,34.908465,806.34094)"
         d="m 205,80.547241 c 0,13.530977 -11.41674,24.499999 -25.5,24.499999 -14.08326,0 -25.5,-10.969022 -25.5,-24.499999 0,-13.530976 11.41674,-24.5 25.5,-24.5 14.08326,0 25.5,10.969024 25.5,24.5 z"
         sodipodi:ry="24.5"
         sodipodi:rx="25.5"
         sodipodi:cy="80.547241"
         sodipodi:cx="179.5"
         id="path4061"
         style="fill:none;stroke:#000000;stroke-width:2.0395999;stroke-miterlimit:4;stroke-opacity:1;stroke-dasharray:none;stroke-dashoffset:0"
         sodipodi:type="arc" />
      <path
         sodipodi:nodetypes="cc"
         inkscape:connector-curvature="0"
         id="path4063"
         d="m 191.5,739.86212 25,-24"
         style="fill:none;stroke:#000000;stroke-width:1px;stroke-linecap:butt;stroke-linejoin:miter;stroke-opacity:1" />
    </g>
    <g
       id="g4065"
       transform="translate(0,280)">
      <path
         sodipodi:type="arc"
         style="fill:none;stroke:#000000;stroke-width:2.0395999;stroke-miterlimit:4;stroke-opacity:1;stroke-dasharray:none;stroke-dashoffset:0"
         id="path4067"
         sodipodi:cx="179.5"
         sodipodi:cy="80.547241"
         sodipodi:rx="25.5"
         sodipodi:ry="24.5"
         d="m 205,80.547241 c 0,13.530977 -11.41674,24.499999 -25.5,24.499999 -14.08326,0 -25.5,-10.969022 -25.5,-24.499999 0,-13.530976 11.41674,-24.5 25.5,-24.5 14.08326,0 25.5,10.969024 25.5,24.5 z"
         transform="matrix(0.94196003,0,0,-0.98040739,34.908465,806.34094)" />
      <path
         style="fill:none;stroke:#000000;stroke-width:1px;stroke-linecap:butt;stroke-linejoin:miter;stroke-opacity:1"
         d="m 191.5,739.86212 25,-24"
         id="path4069"
         inkscape:connector-curvature="0"
         sodipodi:nodetypes="cc" />
    </g>
    <path
       style="fill:none;stroke:#000000;stroke-width:1px;stroke-linecap:butt;stroke-linejoin:miter;stroke-opacity:1"
       d="m 380.5,151.04724 106.5,0"
       id="path4093"
       inkscape:connector-curvature="0"
       transform="translate(0,680.31488)"
       sodipodi:nodetypes="cc" />
    <path
       sodipodi:nodetypes="cc"
       inkscape:connector-curvature="0"
       id="path4097"
       d="m 380.5,808.86212 106.5,0"
       style="fill:none;stroke:#000000;stroke-width:1px;stroke-linecap:butt;stroke-linejoin:miter;stroke-opacity:0.11764706" />
    <path
       style="fill:none;stroke:#000000;stroke-width:1px;stroke-linecap:butt;stroke-linejoin:miter;stroke-opacity:0.11764706"
       d="m 380.5,852.86212 106.5,0"
       id="path4099"
       inkscape:connector-curvature="0"
       sodipodi:nodetypes="cc" />
    <path
       sodipodi:nodetypes="cc"
       inkscape:connector-curvature="0"
       id="path4101"
       d="m 380.5,874.86212 106.5,0"
       style="fill:none;stroke:#000000;stroke-width:1px;stroke-linecap:butt;stroke-linejoin:miter;stroke-opacity:0.11764706" />
    <g
       style="fill:#ffffff;fill-opacity:0.78076923"
       id="g4073"
       transform="matrix(0.97217848,0,0,0.99309131,399.27944,-27.625257)">
      <rect
         y="829.31506"
         x="17.716536"
         height="141.73228"
         width="35.433071"
         id="rect4075"
         style="fill:#ffffff;fill-opacity:0.78076923;stroke:#000000;stroke-width:1;stroke-miterlimit:4;stroke-opacity:1;stroke-dasharray:none" />
    </g>
    <text
       xml:space="preserve"
       style="font-size:10px;font-style:normal;font-variant:normal;font-weight:normal;font-stretch:normal;line-height:125%;letter-spacing:0px;word-spacing:0px;fill:#000000;fill-opacity:1;stroke:none;font-family:Latin Modern Sans;-inkscape-font-specification:Latin Modern Sans"
       x="833.2804"
       y="-428.20172"
       id="text4089"
       sodipodi:linespacing="125%"
       transform="matrix(0,1,-1,0,0,0)"><tspan
         sodipodi:role="line"
         id="tspan4091"
         x="833.2804"
         y="-428.20172"
         style="font-size:20px">softmax</tspan></text>
    <text
       xml:space="preserve"
       style="font-size:10px;font-style:normal;font-variant:normal;font-weight:normal;font-stretch:normal;line-height:125%;letter-spacing:0px;word-spacing:0px;fill:#000000;fill-opacity:1;stroke:none;font-family:Latin Modern Sans;-inkscape-font-specification:Latin Modern Sans"
       x="25.455845"
       y="270.22385"
       id="text4105"
       sodipodi:linespacing="125%"
       transform="translate(0,680.31488)"><tspan
         sodipodi:role="line"
         id="tspan4107"
         x="25.455845"
         y="270.22385" /></text>
    <text
       sodipodi:linespacing="125%"
       id="text4113"
       y="954.07434"
       x="472.12552"
       style="font-size:20px;font-style:normal;font-variant:normal;font-weight:normal;font-stretch:normal;line-height:125%;letter-spacing:0px;word-spacing:0px;fill:#000000;fill-opacity:1;stroke:none;font-family:Latin Modern Sans;-inkscape-font-specification:Latin Modern Sans"
       xml:space="preserve"><tspan
         y="954.07434"
         x="472.12552"
         id="tspan4115"
         sodipodi:role="line"
         style="font-size:15px">w(t+ℓ)</tspan></text>
    <text
       xml:space="preserve"
       style="font-size:20px;font-style:normal;font-variant:normal;font-weight:normal;font-stretch:normal;line-height:125%;letter-spacing:0px;word-spacing:0px;fill:#000000;fill-opacity:1;stroke:none;font-family:Latin Modern Sans;-inkscape-font-specification:Latin Modern Sans"
       x="23.025999"
       y="954.07434"
       id="text4117"
       sodipodi:linespacing="125%"><tspan
         sodipodi:role="line"
         id="tspan4119"
         x="23.025999"
         y="954.07434"
         style="font-size:15px">w(t)</tspan></text>
  </g>
</svg>
